<mxfile host="app.diagrams.net" agent="Mozilla/5.0 (Macintosh; Intel Mac OS X 10_15_7) AppleWebKit/537.36 (KHTML, like Gecko) Chrome/130.0.0.0 Safari/537.36" version="24.8.3">
  <diagram name="Page-1" id="2YBvvXClWsGukQMizWep">
    <mxGraphModel dx="1314" dy="831" grid="1" gridSize="10" guides="1" tooltips="1" connect="1" arrows="1" fold="1" page="1" pageScale="1" pageWidth="850" pageHeight="1100" math="0" shadow="0">
      <root>
        <mxCell id="0" />
        <mxCell id="1" parent="0" />
        <mxCell id="bjVUPFGAhQ7X9oyQEovi-2" value="Caller" style="shape=umlLifeline;perimeter=lifelinePerimeter;whiteSpace=wrap;container=1;dropTarget=0;collapsible=0;recursiveResize=0;outlineConnect=0;portConstraint=eastwest;newEdgeStyle={&quot;edgeStyle&quot;:&quot;elbowEdgeStyle&quot;,&quot;elbow&quot;:&quot;vertical&quot;,&quot;curved&quot;:0,&quot;rounded&quot;:0};size=65;" vertex="1" parent="1">
          <mxGeometry x="20" y="470" width="150" height="1630" as="geometry" />
        </mxCell>
        <mxCell id="bjVUPFGAhQ7X9oyQEovi-3" value="Emergency" style="shape=umlLifeline;perimeter=lifelinePerimeter;whiteSpace=wrap;container=1;dropTarget=0;collapsible=0;recursiveResize=0;outlineConnect=0;portConstraint=eastwest;newEdgeStyle={&quot;edgeStyle&quot;:&quot;elbowEdgeStyle&quot;,&quot;elbow&quot;:&quot;vertical&quot;,&quot;curved&quot;:0,&quot;rounded&quot;:0};size=65;" vertex="1" parent="1">
          <mxGeometry x="220" y="470" width="150" height="1630" as="geometry" />
        </mxCell>
        <mxCell id="bjVUPFGAhQ7X9oyQEovi-4" value="" style="points=[];perimeter=orthogonalPerimeter;outlineConnect=0;targetShapes=umlLifeline;portConstraint=eastwest;newEdgeStyle={&quot;edgeStyle&quot;:&quot;elbowEdgeStyle&quot;,&quot;elbow&quot;:&quot;vertical&quot;,&quot;curved&quot;:0,&quot;rounded&quot;:0}" vertex="1" parent="bjVUPFGAhQ7X9oyQEovi-3">
          <mxGeometry x="70" y="103" width="10" height="1432" as="geometry" />
        </mxCell>
        <mxCell id="bjVUPFGAhQ7X9oyQEovi-5" value="Firefighting Crew" style="shape=umlLifeline;perimeter=lifelinePerimeter;whiteSpace=wrap;container=1;dropTarget=0;collapsible=0;recursiveResize=0;outlineConnect=0;portConstraint=eastwest;newEdgeStyle={&quot;edgeStyle&quot;:&quot;elbowEdgeStyle&quot;,&quot;elbow&quot;:&quot;vertical&quot;,&quot;curved&quot;:0,&quot;rounded&quot;:0};size=65;" vertex="1" parent="1">
          <mxGeometry x="501" y="470" width="150" height="1630" as="geometry" />
        </mxCell>
        <mxCell id="bjVUPFGAhQ7X9oyQEovi-6" value="" style="points=[];perimeter=orthogonalPerimeter;outlineConnect=0;targetShapes=umlLifeline;portConstraint=eastwest;newEdgeStyle={&quot;edgeStyle&quot;:&quot;elbowEdgeStyle&quot;,&quot;elbow&quot;:&quot;vertical&quot;,&quot;curved&quot;:0,&quot;rounded&quot;:0}" vertex="1" parent="bjVUPFGAhQ7X9oyQEovi-5">
          <mxGeometry x="70" y="388" width="10" height="1137" as="geometry" />
        </mxCell>
        <mxCell id="bjVUPFGAhQ7X9oyQEovi-7" value="Medical Team" style="shape=umlLifeline;perimeter=lifelinePerimeter;whiteSpace=wrap;container=1;dropTarget=0;collapsible=0;recursiveResize=0;outlineConnect=0;portConstraint=eastwest;newEdgeStyle={&quot;edgeStyle&quot;:&quot;elbowEdgeStyle&quot;,&quot;elbow&quot;:&quot;vertical&quot;,&quot;curved&quot;:0,&quot;rounded&quot;:0};size=65;" vertex="1" parent="1">
          <mxGeometry x="701" y="470" width="150" height="1630" as="geometry" />
        </mxCell>
        <mxCell id="bjVUPFGAhQ7X9oyQEovi-8" value="" style="points=[];perimeter=orthogonalPerimeter;outlineConnect=0;targetShapes=umlLifeline;portConstraint=eastwest;newEdgeStyle={&quot;edgeStyle&quot;:&quot;elbowEdgeStyle&quot;,&quot;elbow&quot;:&quot;vertical&quot;,&quot;curved&quot;:0,&quot;rounded&quot;:0}" vertex="1" parent="bjVUPFGAhQ7X9oyQEovi-7">
          <mxGeometry x="70" y="388" width="10" height="1127" as="geometry" />
        </mxCell>
        <mxCell id="bjVUPFGAhQ7X9oyQEovi-9" value="Police" style="shape=umlLifeline;perimeter=lifelinePerimeter;whiteSpace=wrap;container=1;dropTarget=0;collapsible=0;recursiveResize=0;outlineConnect=0;portConstraint=eastwest;newEdgeStyle={&quot;edgeStyle&quot;:&quot;elbowEdgeStyle&quot;,&quot;elbow&quot;:&quot;vertical&quot;,&quot;curved&quot;:0,&quot;rounded&quot;:0};size=65;" vertex="1" parent="1">
          <mxGeometry x="901" y="470" width="150" height="1630" as="geometry" />
        </mxCell>
        <mxCell id="bjVUPFGAhQ7X9oyQEovi-10" value="" style="points=[];perimeter=orthogonalPerimeter;outlineConnect=0;targetShapes=umlLifeline;portConstraint=eastwest;newEdgeStyle={&quot;edgeStyle&quot;:&quot;elbowEdgeStyle&quot;,&quot;elbow&quot;:&quot;vertical&quot;,&quot;curved&quot;:0,&quot;rounded&quot;:0}" vertex="1" parent="bjVUPFGAhQ7X9oyQEovi-9">
          <mxGeometry x="70" y="388" width="10" height="1117" as="geometry" />
        </mxCell>
        <mxCell id="bjVUPFGAhQ7X9oyQEovi-11" value="par" style="shape=umlFrame;dashed=1;pointerEvents=0;dropTarget=0;strokeColor=#B3B3B3;height=20;width=30" vertex="1" parent="1">
          <mxGeometry x="483" y="1395" width="583" height="284" as="geometry" />
        </mxCell>
        <mxCell id="bjVUPFGAhQ7X9oyQEovi-12" value="[Parallel Operations]" style="text;strokeColor=none;fillColor=none;align=center;verticalAlign=middle;whiteSpace=wrap;" vertex="1" parent="bjVUPFGAhQ7X9oyQEovi-11">
          <mxGeometry x="30" width="553" height="20" as="geometry" />
        </mxCell>
        <mxCell id="bjVUPFGAhQ7X9oyQEovi-13" value="Emergency Call" style="verticalAlign=bottom;edgeStyle=elbowEdgeStyle;elbow=vertical;curved=0;rounded=0;endArrow=block;" edge="1" parent="1" source="bjVUPFGAhQ7X9oyQEovi-2" target="bjVUPFGAhQ7X9oyQEovi-4">
          <mxGeometry relative="1" as="geometry">
            <Array as="points">
              <mxPoint x="202" y="573" />
            </Array>
          </mxGeometry>
        </mxCell>
        <mxCell id="bjVUPFGAhQ7X9oyQEovi-14" value="Alert according to alarm level" style="verticalAlign=bottom;edgeStyle=elbowEdgeStyle;elbow=vertical;curved=0;rounded=0;endArrow=block;" edge="1" parent="1" source="bjVUPFGAhQ7X9oyQEovi-4" target="bjVUPFGAhQ7X9oyQEovi-5">
          <mxGeometry relative="1" as="geometry">
            <Array as="points">
              <mxPoint x="446" y="762" />
            </Array>
          </mxGeometry>
        </mxCell>
        <mxCell id="bjVUPFGAhQ7X9oyQEovi-15" value="Alert medical response" style="verticalAlign=bottom;edgeStyle=elbowEdgeStyle;elbow=vertical;curved=0;rounded=0;endArrow=block;" edge="1" parent="1" source="bjVUPFGAhQ7X9oyQEovi-4" target="bjVUPFGAhQ7X9oyQEovi-7">
          <mxGeometry relative="1" as="geometry">
            <Array as="points">
              <mxPoint x="546" y="810" />
            </Array>
          </mxGeometry>
        </mxCell>
        <mxCell id="bjVUPFGAhQ7X9oyQEovi-16" value="Inform police" style="verticalAlign=bottom;edgeStyle=elbowEdgeStyle;elbow=vertical;curved=0;rounded=0;endArrow=block;" edge="1" parent="1" source="bjVUPFGAhQ7X9oyQEovi-4" target="bjVUPFGAhQ7X9oyQEovi-10">
          <mxGeometry relative="1" as="geometry">
            <Array as="points">
              <mxPoint x="646" y="858" />
            </Array>
          </mxGeometry>
        </mxCell>
        <mxCell id="bjVUPFGAhQ7X9oyQEovi-17" value="Status: En route" style="verticalAlign=bottom;edgeStyle=elbowEdgeStyle;elbow=vertical;curved=0;rounded=0;dashed=1;dashPattern=2 3;endArrow=block;" edge="1" parent="1" source="bjVUPFGAhQ7X9oyQEovi-6" target="bjVUPFGAhQ7X9oyQEovi-4">
          <mxGeometry relative="1" as="geometry">
            <Array as="points">
              <mxPoint x="447" y="1163" />
            </Array>
          </mxGeometry>
        </mxCell>
        <mxCell id="bjVUPFGAhQ7X9oyQEovi-18" value="Status: En route" style="verticalAlign=bottom;edgeStyle=elbowEdgeStyle;elbow=vertical;curved=0;rounded=0;dashed=1;dashPattern=2 3;endArrow=block;" edge="1" parent="1" source="bjVUPFGAhQ7X9oyQEovi-8" target="bjVUPFGAhQ7X9oyQEovi-4">
          <mxGeometry relative="1" as="geometry">
            <Array as="points">
              <mxPoint x="547" y="1211" />
            </Array>
          </mxGeometry>
        </mxCell>
        <mxCell id="bjVUPFGAhQ7X9oyQEovi-19" value="Status: En route" style="verticalAlign=bottom;edgeStyle=elbowEdgeStyle;elbow=vertical;curved=0;rounded=0;dashed=1;dashPattern=2 3;endArrow=block;" edge="1" parent="1" source="bjVUPFGAhQ7X9oyQEovi-10" target="bjVUPFGAhQ7X9oyQEovi-4">
          <mxGeometry relative="1" as="geometry">
            <Array as="points">
              <mxPoint x="647" y="1259" />
            </Array>
          </mxGeometry>
        </mxCell>
        <mxCell id="bjVUPFGAhQ7X9oyQEovi-20" value="Situation report &amp;&#xa;possible request for backup" style="verticalAlign=bottom;edgeStyle=elbowEdgeStyle;elbow=vertical;curved=0;rounded=0;endArrow=block;" edge="1" parent="1" source="bjVUPFGAhQ7X9oyQEovi-6" target="bjVUPFGAhQ7X9oyQEovi-4">
          <mxGeometry relative="1" as="geometry">
            <Array as="points">
              <mxPoint x="447" y="1375" />
            </Array>
          </mxGeometry>
        </mxCell>
        <mxCell id="bjVUPFGAhQ7X9oyQEovi-21" value="Report &quot;Fire out&quot;" style="verticalAlign=bottom;edgeStyle=elbowEdgeStyle;elbow=vertical;curved=0;rounded=0;endArrow=block;" edge="1" parent="1" source="bjVUPFGAhQ7X9oyQEovi-6" target="bjVUPFGAhQ7X9oyQEovi-4">
          <mxGeometry relative="1" as="geometry">
            <Array as="points">
              <mxPoint x="447" y="1784" />
            </Array>
          </mxGeometry>
        </mxCell>
        <mxCell id="bjVUPFGAhQ7X9oyQEovi-22" value="Operation complete" style="verticalAlign=bottom;edgeStyle=elbowEdgeStyle;elbow=vertical;curved=0;rounded=0;endArrow=block;" edge="1" parent="1" source="bjVUPFGAhQ7X9oyQEovi-6" target="bjVUPFGAhQ7X9oyQEovi-4">
          <mxGeometry relative="1" as="geometry">
            <Array as="points">
              <mxPoint x="447" y="1899" />
            </Array>
          </mxGeometry>
        </mxCell>
        <mxCell id="bjVUPFGAhQ7X9oyQEovi-23" value="Operation complete" style="verticalAlign=bottom;edgeStyle=elbowEdgeStyle;elbow=vertical;curved=0;rounded=0;endArrow=block;" edge="1" parent="1" source="bjVUPFGAhQ7X9oyQEovi-8" target="bjVUPFGAhQ7X9oyQEovi-4">
          <mxGeometry relative="1" as="geometry">
            <Array as="points">
              <mxPoint x="547" y="1947" />
            </Array>
          </mxGeometry>
        </mxCell>
        <mxCell id="bjVUPFGAhQ7X9oyQEovi-24" value="Operation complete" style="verticalAlign=bottom;edgeStyle=elbowEdgeStyle;elbow=vertical;curved=0;rounded=0;endArrow=block;" edge="1" parent="1" source="bjVUPFGAhQ7X9oyQEovi-9" target="bjVUPFGAhQ7X9oyQEovi-4">
          <mxGeometry relative="1" as="geometry">
            <Array as="points">
              <mxPoint x="647" y="1995" />
            </Array>
          </mxGeometry>
        </mxCell>
        <mxCell id="bjVUPFGAhQ7X9oyQEovi-25" value="Standardized Emergency Query:&#xa;- Where?&#xa;- What?&#xa;- How many injured?&#xa;- What type of injuries?&#xa;- Wait for questions" style="fillColor=#ffff88;strokeColor=#9E916F;" vertex="1" parent="1">
          <mxGeometry x="168" y="593" width="255" height="141" as="geometry" />
        </mxCell>
        <mxCell id="bjVUPFGAhQ7X9oyQEovi-26" value="Deployment:&#xa;- Fire engines&#xa;- Ladder truck&#xa;- Command unit" style="fillColor=#ffff88;strokeColor=#9E916F;" vertex="1" parent="1">
          <mxGeometry x="501" y="878" width="150" height="104" as="geometry" />
        </mxCell>
        <mxCell id="bjVUPFGAhQ7X9oyQEovi-27" value="Deployment:&#xa;- Ambulances&#xa;- Emergency physician" style="fillColor=#ffff88;strokeColor=#9E916F;" vertex="1" parent="1">
          <mxGeometry x="684" y="982" width="185" height="86" as="geometry" />
        </mxCell>
        <mxCell id="bjVUPFGAhQ7X9oyQEovi-28" value="Deployment:&#xa;- Patrol cars" style="fillColor=#ffff88;strokeColor=#9E916F;" vertex="1" parent="1">
          <mxGeometry x="901" y="1068" width="150" height="67" as="geometry" />
        </mxCell>
        <mxCell id="bjVUPFGAhQ7X9oyQEovi-29" value="Initial situation assessment" style="fillColor=#ffff88;strokeColor=#9E916F;" vertex="1" parent="1">
          <mxGeometry x="469" y="1279" width="215" height="49" as="geometry" />
        </mxCell>
        <mxCell id="bjVUPFGAhQ7X9oyQEovi-30" value="Firefighting:&#xa;- Rescue operations&#xa;- Fire attack&#xa;- Ventilation" style="fillColor=#ffff88;strokeColor=#9E916F;" vertex="1" parent="1">
          <mxGeometry x="493" y="1440" width="166" height="104" as="geometry" />
        </mxCell>
        <mxCell id="bjVUPFGAhQ7X9oyQEovi-31" value="Casualty care" style="fillColor=#ffff88;strokeColor=#9E916F;" vertex="1" parent="1">
          <mxGeometry x="701" y="1544" width="150" height="49" as="geometry" />
        </mxCell>
        <mxCell id="bjVUPFGAhQ7X9oyQEovi-32" value="Security measures:&#xa;- Traffic control&#xa;- Evacuation" style="fillColor=#ffff88;strokeColor=#9E916F;" vertex="1" parent="1">
          <mxGeometry x="897" y="1593" width="159" height="86" as="geometry" />
        </mxCell>
        <mxCell id="bjVUPFGAhQ7X9oyQEovi-33" value="Ongoing coordination&#xa;between response units" style="fillColor=#ffff88;strokeColor=#9E916F;" vertex="1" parent="1">
          <mxGeometry x="551" y="1689" width="450" height="67" as="geometry" />
        </mxCell>
        <mxCell id="bjVUPFGAhQ7X9oyQEovi-34" value="Overhaul &amp;&#xa;final checks" style="fillColor=#ffff88;strokeColor=#9E916F;" vertex="1" parent="1">
          <mxGeometry x="501" y="1804" width="150" height="67" as="geometry" />
        </mxCell>
      </root>
    </mxGraphModel>
  </diagram>
</mxfile>
